{"title":"WhiteOut 2009 DVD9rip English Klam","uid":6001605,"size":1577516938,"categoryP":"video","categoryS":"movies","magnet":"?xt=urn:btih:8667735247085f7e8a0bc015263c69863e06c3d8&amp;dn=WhiteOut+2009+DVD9rip+English+Klam&amp;tr=udp%3A%2F%2Ftracker.openbittorrent.com%3A80&amp;tr=udp%3A%2F%2Fopen.demonii.com%3A1337&amp;tr=udp%3A%2F%2Ftracker.coppersurfer.tk%3A6969&amp;tr=udp%3A%2F%2Fexodus.desync.com%3A6969","seeders":0,"leechers":0,"uploader":"Klambake","files":-1,"time":1291195578,"description":"[img]http://img809.imageshack.us/img809/6233/whiteoutf.jpg[/img]\n\nWith: Kate Beckinsale, Gabriel Macht and Columbus Short\n\nIn an American station in the South Pole, the expatriated staff is about to return in three days to their homelands for six months before the arrival of a whiteout - a weather condition in which visibility and contrast are severely reduced by snow and wind of 160 km/h. When a pilot reports that he might have seen a corpse in the snow, U.S. Marshall Carrie Stetko flies to the location with the pilot Delfy and Dr. John Fury to investigate. Carrie has a traumatic experience in Miami and has already sent her resignation letter. They discover that the dead man is the geologist Weiss that is missing with two other scientists; further, Carrie finds evidences that he was murdered. When Carrie returns to the station, she receives a call from the abandoned Russian Vostok Station from one of the missing technicians and when she arrives in the station, she finds him dead. The killer tries to kill her and Carrie succeeds to escape..\n &lt;a href=&quot;\nhttp://www.imdb.com/title/tt0365929&quot; rel=&quot;nofollow&quot; target=&quot;_NEW&quot;&gt;\nhttp://www.imdb.com/title/tt0365929&lt;/a&gt;\thttp://bayimg.com/\n\nGeneral:\n\nComplete name                    : White\\Out.avi\nFormat                           : AVI\nFormat/Info                      : Audio Video Interleave\nFile size                        : 1.47 GiB\nDuration                         : 1h 36mn\nOverall bit rate                 : 2 176 Kbps\n\nVideo:\n\nFormat                           : MPEG-4 Visual\nFormat profile                   : Simple@L3\nFormat settings, BVOP            : No\nFormat settings, QPel            : No\nFormat settings, GMC             : No warppoints\nFormat settings, Matrix          : Default (H.263)\nCodec ID                         : XVID\nCodec ID/Hint                    : XviD\nDuration                         : 1h 36mn\nBit rate                         : 1 781 Kbps\nWidth                            : 720 pixels\nHeight                           : 576 pixels\nDisplay aspect ratio             : 5:4\nFrame rate                       : 25.000 fps\nStandard                         : PAL\nColor space                      : YUV\nChroma subsampling               : 4:2:0\nBit depth                        : 8 bits\nScan type                        : Progressive\nBits/(Pixel*Frame)               : 0.172\nStream size                      : 1.20 GiB (82%)\nWriting library                  : XviD 1.1.2 (UTC 2006-11-01)\n\nAudio:\n\nFormat                           : AC-3\nFormat/Info                      : Audio Coding 3\nMode extension                   : CM (complete main)\nCodec ID                         : 2000\nDuration                         : 1h 36mn\nBit rate mode                    : Constant\nBit rate                         : 384 Kbps\nChannel(s)                       : 6 channels\nChannel positions                : Front: L C R, Side: L R, LFE\nSampling rate                    : 48.0 KHz\nBit depth                        : 16 bits\nStream size                      : 265 MiB (18%)\nAlignment                        : Aligned on interleaves\nInterleave, duration             : 32 ms (0.80 video frame)","torrent":{"xt":"urn:btih:8667735247085f7e8a0bc015263c69863e06c3d8","amp;dn":"WhiteOut+2009+DVD9rip+English+Klam","amp;tr":["udp%3A%2F%2Ftracker.openbittorrent.com%3A80","udp%3A%2F%2Fopen.demonii.com%3A1337","udp%3A%2F%2Ftracker.coppersurfer.tk%3A6969","udp%3A%2F%2Fexodus.desync.com%3A6969"],"infoHash":"8667735247085f7e8a0bc015263c69863e06c3d8","infoHashBuffer":{"type":"Buffer","data":[134,103,115,82,71,8,95,126,138,11,192,21,38,60,105,134,62,6,195,216]},"announce":[],"urlList":[]}}